<svg width="32" height="32" xmlns="http://www.w3.org/2000/svg"><defs><linearGradient x1="66.485%" y1="11.202%" x2="44.863%" y2="59.857%" id="a"><stop stop-color="#FFFC00" offset="0%"/><stop stop-color="#F8BA28" offset="100%"/></linearGradient><linearGradient x1="50%" y1="36.31%" x2="29.519%" y2="67.39%" id="b"><stop stop-color="#B5B5B5" offset="0%"/><stop stop-color="#83848F" offset="100%"/></linearGradient><linearGradient x1="50%" y1="37.383%" x2="29.304%" y2="66.328%" id="c"><stop stop-color="#B5B5B5" offset="0%"/><stop stop-color="#83848F" offset="100%"/></linearGradient><linearGradient x1="52.834%" y1="54.131%" x2="34.041%" y2="99.694%" id="d"><stop stop-color="#3794FA" offset="0%"/><stop stop-color="#83BEFF" offset="99.96%"/></linearGradient></defs><g fill="none" fill-rule="evenodd"><g fill-rule="nonzero"><path d="M13.592 1.226 14 0l.408 1.227c.328.015.651.049.968.1l.656-1.118.145 1.283c.31.08.612.176.907.287l.856-.97-.104 1.295c.291.142.573.3.845.473l1.045-.776-.371 1.25c.249.192.487.398.714.616l1.175-.563-.607 1.164c.209.242.404.496.586.76l1.273-.308-.836 1.013c.155.278.295.565.419.86l1.316-.036-1.03.818c.092.295.17.597.23.904l1.3.216-1.176.612a8.9 8.9 0 0 1 .045.945l1.236.486-1.28.354a8.78 8.78 0 0 1-.145.932l1.113.736-1.326.08a8.73 8.73 0 0 1-.322.862l.952.935-1.325-.177a8.792 8.792 0 0 1-.497.794l.741 1.118-1.261-.449a8.835 8.835 0 0 1-.63.662l.514 1.238-1.158-.684c-.245.19-.5.369-.764.533l.246 1.321-.988-.908c-.277.137-.563.26-.856.368l-.034 1.345-.776-1.092c-.292.077-.59.138-.894.184L15.02 20l-.555-1.224a8.904 8.904 0 0 1-.932 0L12.979 20l-.288-1.307a8.719 8.719 0 0 1-.898-.182l-.773 1.087-.034-1.338a8.715 8.715 0 0 1-.864-.369l-.98.902.244-1.31a8.796 8.796 0 0 1-.774-.537l-1.146.677.508-1.224a8.835 8.835 0 0 1-.64-.67l-1.245.443.731-1.103a8.793 8.793 0 0 1-.506-.806l-1.306.174.937-.92a8.73 8.73 0 0 1-.328-.879l-1.305-.078 1.095-.724a8.78 8.78 0 0 1-.148-.95L4 10.538l1.216-.478a8.984 8.984 0 0 1 .046-.963l-1.158-.602 1.28-.212c.062-.313.14-.62.235-.92l-1.014-.806 1.296.036c.126-.3.269-.592.427-.875l-.824-.998 1.256.304c.184-.268.383-.526.595-.77l-.599-1.15 1.162.557c.23-.22.47-.429.723-.624l-.367-1.236 1.035.769c.275-.174.56-.333.854-.475L10.06.809l.85.964c.298-.111.603-.207.914-.286l.144-1.278.654 1.114a8.8 8.8 0 0 1 .97-.097Z" fill="url(#a)" transform="translate(4 3)"/><path d="M8.608 2.33c.414-.241.89-.379 1.398-.379 1.481 0 2.7 1.174 2.853 2.681.212-.062.437-.095.669-.095C14.893 4.537 16 5.694 16 7.122s-1.107 2.585-2.472 2.585c-.321 0-.627-.064-.908-.18a2.442 2.442 0 0 1-1.471.473c-.626 0-1.191-.219-1.59-.57-.852.353-2 .57-3.262.57-1.248 0-2.385-.212-3.233-.559-.308.2-.67.315-1.058.315C.898 9.756 0 8.817 0 7.66c0-.64.273-1.211.704-1.596a.983.983 0 0 1-.098-.429c0-.471.328-.862.758-.938A4.204 4.204 0 0 1 1.306 4c0-2.21 1.713-4 3.825-4 1.543 0 2.872.955 3.477 2.33Z" transform="matrix(-1 0 0 1 29 8)" fill="url(#b)"/><path d="M13.45 10.496a4.449 4.449 0 0 1 2.184-.57 4.49 4.49 0 0 1 4.458 4.023A3.87 3.87 0 0 1 25 17.683a3.87 3.87 0 0 1-3.863 3.878 3.84 3.84 0 0 1-1.419-.27c-.608.44-1.414.709-2.298.709-.978 0-1.86-.328-2.485-.855-1.33.53-3.123.855-5.095.855-1.951 0-3.727-.318-5.053-.838a3.11 3.11 0 0 1-1.653.472A3.14 3.14 0 0 1 0 18.488c0-.958.427-1.817 1.1-2.394a1.426 1.426 0 0 1 1.031-2.05A6.06 6.06 0 0 1 2.041 13c0-3.314 2.676-6 5.976-6a5.976 5.976 0 0 1 5.433 3.496Z" fill="url(#c)" transform="translate(4 3)"/></g><g transform="translate(3.5 18.5)" fill="url(#d)"><path d="M5.48 11.303c-1.146-.527-1.713-1.745-1.267-2.726.446-.975 4.773-6.023 5.13-5.894.355.13-.53 6.828-.978 7.806-.444.98-1.736 1.347-2.885.814ZM15.23 11.303c-1.146-.527-1.713-1.745-1.267-2.726.446-.975 4.773-6.023 5.13-5.894.355.13-.53 6.828-.978 7.806-.444.98-1.736 1.347-2.885.814Z"/></g></g></svg>
