<svg width="32" height="32" xmlns="http://www.w3.org/2000/svg"><defs><linearGradient x1="50%" y1="35.522%" x2="17.716%" y2="60.798%" id="a"><stop stop-color="#6B6D74" offset="0%"/><stop stop-color="#222" offset="100%"/></linearGradient><linearGradient x1="50%" y1="45.843%" x2="8.568%" y2="62.674%" id="b"><stop stop-color="#969696" offset="0%"/><stop stop-color="#767676" offset="100%"/></linearGradient><linearGradient x1="52.834%" y1="54.131%" x2="34.041%" y2="99.694%" id="c"><stop stop-color="#3794FA" offset="0%"/><stop stop-color="#83BEFF" offset="99.96%"/></linearGradient></defs><g fill="none" fill-rule="evenodd"><path d="M17.45 3.496a4.449 4.449 0 0 1 2.184-.57 4.49 4.49 0 0 1 4.458 4.023A3.87 3.87 0 0 1 29 10.683a3.87 3.87 0 0 1-3.863 3.878 3.84 3.84 0 0 1-1.419-.27c-.608.44-1.414.709-2.298.709-.978 0-1.86-.328-2.485-.855-1.33.53-3.123.855-5.095.855-1.951 0-3.727-.318-5.053-.838a3.11 3.11 0 0 1-1.653.472A3.14 3.14 0 0 1 4 11.488c0-.958.427-1.817 1.1-2.394a1.426 1.426 0 0 1 1.031-2.05A6.06 6.06 0 0 1 6.041 6c0-3.314 2.676-6 5.976-6a5.976 5.976 0 0 1 5.433 3.496Z" fill="url(#a)" fill-rule="nonzero" transform="translate(1.5 4.5)"/><path d="M13.95 6.496a4.449 4.449 0 0 1 2.184-.57 4.49 4.49 0 0 1 4.458 4.023 3.87 3.87 0 0 1 4.908 3.734 3.87 3.87 0 0 1-3.863 3.878 3.84 3.84 0 0 1-1.419-.27c-.608.44-1.414.709-2.298.709-.978 0-1.86-.328-2.485-.855-1.33.53-3.123.855-5.095.855-1.951 0-3.727-.318-5.053-.838a3.11 3.11 0 0 1-1.653.472A3.14 3.14 0 0 1 .5 14.488c0-.958.427-1.817 1.1-2.394a1.426 1.426 0 0 1 1.031-2.05A6.06 6.06 0 0 1 2.541 9c0-3.314 2.676-6 5.976-6a5.976 5.976 0 0 1 5.433 3.496Z" fill="url(#b)" fill-rule="nonzero" transform="translate(1.5 4.5)"/><g transform="translate(3 16)" fill="url(#c)"><path d="M5.48 11.303c-1.146-.527-1.713-1.745-1.267-2.726.446-.975 4.773-6.023 5.13-5.894.355.13-.53 6.828-.978 7.806-.444.98-1.736 1.347-2.885.814ZM15.23 11.303c-1.146-.527-1.713-1.745-1.267-2.726.446-.975 4.773-6.023 5.13-5.894.355.13-.53 6.828-.978 7.806-.444.98-1.736 1.347-2.885.814Z"/></g></g></svg>
