<svg width="32" height="32" xmlns="http://www.w3.org/2000/svg"><defs><linearGradient x1="66.485%" y1="11.202%" x2="44.863%" y2="59.857%" id="a"><stop stop-color="#FFFC00" offset="0%"/><stop stop-color="#F8BA28" offset="100%"/></linearGradient></defs><path d="M15.51 5.471 16 4l.49 1.472c.393.019.781.059 1.162.12l.787-1.342.173 1.54c.371.096.735.211 1.089.345l1.027-1.165-.124 1.555c.349.17.687.36 1.013.567l1.254-.93-.445 1.498c.298.232.584.479.856.74l1.41-.675-.727 1.396c.25.291.485.596.702.912l1.528-.369-1.003 1.216c.186.333.354.678.503 1.032l1.579-.043-1.236.982c.11.353.203.715.276 1.084l1.56.26-1.411.733a10.68 10.68 0 0 1 .054 1.135l1.483.583-1.536.425c-.038.379-.097.752-.174 1.118l1.336.883-1.591.095c-.111.354-.24.7-.386 1.036l1.142 1.12-1.59-.21a10.55 10.55 0 0 1-.597.951l.89 1.343-1.514-.54c-.239.278-.49.544-.756.795l.617 1.486-1.39-.821c-.293.228-.6.442-.917.64l.296 1.585-1.186-1.09a10.46 10.46 0 0 1-1.028.441l-.04 1.615-.93-1.31c-.352.091-.71.165-1.074.22L17.226 28l-.667-1.469a10.685 10.685 0 0 1-1.119.001L14.774 28l-.345-1.568a10.463 10.463 0 0 1-1.078-.219l-.927 1.305-.04-1.605c-.355-.13-.701-.278-1.037-.443l-1.177 1.082.293-1.572a10.555 10.555 0 0 1-.928-.645l-1.376.813.61-1.47c-.27-.254-.526-.522-.767-.803l-1.495.532.877-1.325c-.22-.31-.422-.633-.607-.967l-1.568.209 1.125-1.105c-.149-.342-.28-.693-.394-1.053l-1.566-.094 1.314-.869a10.536 10.536 0 0 1-.177-1.14L4 16.647l1.459-.574a10.781 10.781 0 0 1 .055-1.156l-1.389-.722 1.535-.255c.075-.376.17-.744.282-1.104l-1.216-.966 1.555.042c.152-.36.323-.71.512-1.049l-.988-1.198 1.507.364c.22-.321.46-.63.714-.924l-.719-1.379 1.394.668c.276-.265.566-.515.869-.748L9.129 6.16l1.242.923c.33-.208.672-.4 1.024-.57l-.123-1.544 1.02 1.158c.357-.134.723-.249 1.097-.344l.172-1.534.785 1.338c.382-.06.77-.1 1.164-.117Z" fill="url(#a)" fill-rule="nonzero"/></svg>
