<svg width="32" height="32" xmlns="http://www.w3.org/2000/svg"><defs><linearGradient x1="50%" y1="35.522%" x2="17.716%" y2="60.798%" id="a"><stop stop-color="#6B6D74" offset="0%"/><stop stop-color="#222" offset="100%"/></linearGradient><linearGradient x1="50%" y1="45.843%" x2="8.568%" y2="62.674%" id="b"><stop stop-color="#969696" offset="0%"/><stop stop-color="#767676" offset="100%"/></linearGradient><linearGradient x1="50%" y1="26.504%" x2="50%" y2="100%" id="c"><stop stop-color="#FB7217" offset="0%"/><stop stop-color="#FD3333" offset="100%"/></linearGradient></defs><g fill-rule="nonzero" fill="none"><path d="M16.95 3.496a4.449 4.449 0 0 1 2.184-.57 4.49 4.49 0 0 1 4.458 4.023 3.87 3.87 0 0 1 4.908 3.734 3.87 3.87 0 0 1-3.863 3.878 3.84 3.84 0 0 1-1.419-.27c-.608.44-1.414.709-2.298.709-.978 0-1.86-.328-2.485-.855-1.33.53-3.123.855-5.095.855-1.951 0-3.727-.318-5.053-.838a3.11 3.11 0 0 1-1.653.472A3.14 3.14 0 0 1 3.5 11.488c0-.958.427-1.817 1.1-2.394a1.426 1.426 0 0 1 1.031-2.05A6.06 6.06 0 0 1 5.541 6c0-3.314 2.676-6 5.976-6a5.976 5.976 0 0 1 5.433 3.496Z" fill="url(#a)" transform="translate(1.8 4.5)"/><path d="M13.45 6.496a4.449 4.449 0 0 1 2.184-.57 4.49 4.49 0 0 1 4.458 4.023A3.87 3.87 0 0 1 25 13.683a3.87 3.87 0 0 1-3.863 3.878 3.84 3.84 0 0 1-1.419-.27c-.608.44-1.414.709-2.298.709-.978 0-1.86-.328-2.485-.855-1.33.53-3.123.855-5.095.855-1.951 0-3.727-.318-5.053-.838a3.11 3.11 0 0 1-1.653.472A3.14 3.14 0 0 1 0 14.488c0-.958.427-1.817 1.1-2.394a1.426 1.426 0 0 1 1.031-2.05A6.06 6.06 0 0 1 2.041 9c0-3.314 2.676-6 5.976-6a5.976 5.976 0 0 1 5.433 3.496Z" fill="url(#b)" transform="translate(1.8 4.5)"/><path fill="url(#c)" d="M10.15 9 7 16.5h4.109L8.712 24l7.807-9.639h-5.137L15.286 9z" transform="translate(1.8 4.5)"/></g></svg>
